<mxfile host="app.diagrams.net" agent="Mozilla/5.0 (Macintosh; Intel Mac OS X 10_15_7) AppleWebKit/537.36 (KHTML, like Gecko) Chrome/127.0.0.0 Safari/537.36" version="24.7.7">
  <diagram name="第 1 页" id="XvUzDhK-OcKn1jOEIRn8">
    <mxGraphModel dx="2210" dy="761" grid="1" gridSize="10" guides="1" tooltips="1" connect="1" arrows="1" fold="1" page="1" pageScale="1" pageWidth="827" pageHeight="1169" math="0" shadow="0">
      <root>
        <mxCell id="0" />
        <mxCell id="1" parent="0" />
        <mxCell id="hTSMa4kTt9vsmSw7G7Qm-20" value="" style="rounded=0;whiteSpace=wrap;html=1;" vertex="1" parent="1">
          <mxGeometry x="-10" y="100" width="510" height="640" as="geometry" />
        </mxCell>
        <mxCell id="hTSMa4kTt9vsmSw7G7Qm-3" style="edgeStyle=orthogonalEdgeStyle;rounded=0;orthogonalLoop=1;jettySize=auto;html=1;entryX=0;entryY=0.5;entryDx=0;entryDy=0;" edge="1" parent="1" source="hTSMa4kTt9vsmSw7G7Qm-1" target="hTSMa4kTt9vsmSw7G7Qm-2">
          <mxGeometry relative="1" as="geometry" />
        </mxCell>
        <mxCell id="hTSMa4kTt9vsmSw7G7Qm-1" value="" style="ellipse;whiteSpace=wrap;html=1;aspect=fixed;" vertex="1" parent="1">
          <mxGeometry y="150" width="60" height="60" as="geometry" />
        </mxCell>
        <mxCell id="hTSMa4kTt9vsmSw7G7Qm-5" style="edgeStyle=orthogonalEdgeStyle;rounded=0;orthogonalLoop=1;jettySize=auto;html=1;" edge="1" parent="1" source="hTSMa4kTt9vsmSw7G7Qm-2" target="hTSMa4kTt9vsmSw7G7Qm-4">
          <mxGeometry relative="1" as="geometry" />
        </mxCell>
        <mxCell id="hTSMa4kTt9vsmSw7G7Qm-2" value="MQTTClient" style="rounded=0;whiteSpace=wrap;html=1;" vertex="1" parent="1">
          <mxGeometry x="200" y="150" width="120" height="60" as="geometry" />
        </mxCell>
        <mxCell id="hTSMa4kTt9vsmSw7G7Qm-6" style="edgeStyle=orthogonalEdgeStyle;rounded=0;orthogonalLoop=1;jettySize=auto;html=1;" edge="1" parent="1" source="hTSMa4kTt9vsmSw7G7Qm-4">
          <mxGeometry relative="1" as="geometry">
            <mxPoint x="260" y="420" as="targetPoint" />
          </mxGeometry>
        </mxCell>
        <mxCell id="hTSMa4kTt9vsmSw7G7Qm-10" style="edgeStyle=orthogonalEdgeStyle;rounded=0;orthogonalLoop=1;jettySize=auto;html=1;entryX=0.5;entryY=0;entryDx=0;entryDy=0;" edge="1" parent="1" source="hTSMa4kTt9vsmSw7G7Qm-4" target="hTSMa4kTt9vsmSw7G7Qm-12">
          <mxGeometry relative="1" as="geometry">
            <mxPoint x="350" y="310" as="targetPoint" />
            <Array as="points">
              <mxPoint x="414" y="310" />
            </Array>
          </mxGeometry>
        </mxCell>
        <mxCell id="hTSMa4kTt9vsmSw7G7Qm-4" value="" style="rhombus;whiteSpace=wrap;html=1;" vertex="1" parent="1">
          <mxGeometry x="220" y="270" width="80" height="80" as="geometry" />
        </mxCell>
        <mxCell id="hTSMa4kTt9vsmSw7G7Qm-19" style="edgeStyle=orthogonalEdgeStyle;rounded=0;orthogonalLoop=1;jettySize=auto;html=1;entryX=0.5;entryY=0;entryDx=0;entryDy=0;" edge="1" parent="1" source="hTSMa4kTt9vsmSw7G7Qm-9" target="hTSMa4kTt9vsmSw7G7Qm-18">
          <mxGeometry relative="1" as="geometry" />
        </mxCell>
        <mxCell id="hTSMa4kTt9vsmSw7G7Qm-9" value="转换为多个PointValueList" style="rounded=0;whiteSpace=wrap;html=1;" vertex="1" parent="1">
          <mxGeometry x="200" y="530" width="120" height="60" as="geometry" />
        </mxCell>
        <mxCell id="hTSMa4kTt9vsmSw7G7Qm-14" style="edgeStyle=orthogonalEdgeStyle;rounded=0;orthogonalLoop=1;jettySize=auto;html=1;entryX=1;entryY=0.5;entryDx=0;entryDy=0;" edge="1" parent="1" source="hTSMa4kTt9vsmSw7G7Qm-12" target="hTSMa4kTt9vsmSw7G7Qm-9">
          <mxGeometry relative="1" as="geometry">
            <Array as="points">
              <mxPoint x="420" y="560" />
            </Array>
          </mxGeometry>
        </mxCell>
        <mxCell id="hTSMa4kTt9vsmSw7G7Qm-12" value="其他消息转换逻辑" style="rounded=0;whiteSpace=wrap;html=1;" vertex="1" parent="1">
          <mxGeometry x="354" y="350" width="120" height="60" as="geometry" />
        </mxCell>
        <mxCell id="hTSMa4kTt9vsmSw7G7Qm-16" style="edgeStyle=orthogonalEdgeStyle;rounded=0;orthogonalLoop=1;jettySize=auto;html=1;" edge="1" parent="1" source="hTSMa4kTt9vsmSw7G7Qm-15" target="hTSMa4kTt9vsmSw7G7Qm-9">
          <mxGeometry relative="1" as="geometry" />
        </mxCell>
        <mxCell id="hTSMa4kTt9vsmSw7G7Qm-15" value="Xay消息处理" style="rounded=0;whiteSpace=wrap;html=1;" vertex="1" parent="1">
          <mxGeometry x="200" y="420" width="120" height="60" as="geometry" />
        </mxCell>
        <mxCell id="hTSMa4kTt9vsmSw7G7Qm-18" value="RabbitMQ指定的Topic中" style="rounded=0;whiteSpace=wrap;html=1;" vertex="1" parent="1">
          <mxGeometry x="200" y="630" width="120" height="60" as="geometry" />
        </mxCell>
        <mxCell id="hTSMa4kTt9vsmSw7G7Qm-21" value="Driver" style="text;html=1;align=center;verticalAlign=middle;resizable=0;points=[];autosize=1;strokeColor=none;fillColor=none;" vertex="1" parent="1">
          <mxGeometry x="430" y="108" width="60" height="30" as="geometry" />
        </mxCell>
        <mxCell id="hTSMa4kTt9vsmSw7G7Qm-22" value="" style="rounded=0;whiteSpace=wrap;html=1;" vertex="1" parent="1">
          <mxGeometry x="500" y="100" width="340" height="640" as="geometry" />
        </mxCell>
        <mxCell id="hTSMa4kTt9vsmSw7G7Qm-23" value="Devices-Center" style="text;html=1;align=center;verticalAlign=middle;resizable=0;points=[];autosize=1;strokeColor=none;fillColor=none;" vertex="1" parent="1">
          <mxGeometry x="500" y="108" width="110" height="30" as="geometry" />
        </mxCell>
        <mxCell id="hTSMa4kTt9vsmSw7G7Qm-24" value="" style="endArrow=classic;html=1;rounded=0;exitX=1;exitY=0.5;exitDx=0;exitDy=0;" edge="1" parent="1" source="hTSMa4kTt9vsmSw7G7Qm-18" target="hTSMa4kTt9vsmSw7G7Qm-25">
          <mxGeometry width="50" height="50" relative="1" as="geometry">
            <mxPoint x="340" y="680" as="sourcePoint" />
            <mxPoint x="390" y="630" as="targetPoint" />
          </mxGeometry>
        </mxCell>
        <mxCell id="hTSMa4kTt9vsmSw7G7Qm-27" style="edgeStyle=orthogonalEdgeStyle;rounded=0;orthogonalLoop=1;jettySize=auto;html=1;entryX=0.5;entryY=1;entryDx=0;entryDy=0;" edge="1" parent="1" source="hTSMa4kTt9vsmSw7G7Qm-25" target="hTSMa4kTt9vsmSw7G7Qm-26">
          <mxGeometry relative="1" as="geometry" />
        </mxCell>
        <mxCell id="hTSMa4kTt9vsmSw7G7Qm-29" style="edgeStyle=orthogonalEdgeStyle;rounded=0;orthogonalLoop=1;jettySize=auto;html=1;entryX=0;entryY=0.5;entryDx=0;entryDy=0;" edge="1" parent="1" source="hTSMa4kTt9vsmSw7G7Qm-25" target="hTSMa4kTt9vsmSw7G7Qm-28">
          <mxGeometry relative="1" as="geometry" />
        </mxCell>
        <mxCell id="hTSMa4kTt9vsmSw7G7Qm-25" value="MQ消息监听" style="rounded=0;whiteSpace=wrap;html=1;" vertex="1" parent="1">
          <mxGeometry x="530" y="630" width="120" height="60" as="geometry" />
        </mxCell>
        <mxCell id="hTSMa4kTt9vsmSw7G7Qm-26" value="保存到Redis" style="rounded=0;whiteSpace=wrap;html=1;" vertex="1" parent="1">
          <mxGeometry x="530" y="510" width="120" height="60" as="geometry" />
        </mxCell>
        <mxCell id="hTSMa4kTt9vsmSw7G7Qm-28" value="保存到InfluxDB" style="rounded=0;whiteSpace=wrap;html=1;" vertex="1" parent="1">
          <mxGeometry x="707" y="630" width="120" height="60" as="geometry" />
        </mxCell>
        <mxCell id="hTSMa4kTt9vsmSw7G7Qm-34" style="edgeStyle=orthogonalEdgeStyle;rounded=0;orthogonalLoop=1;jettySize=auto;html=1;entryX=1;entryY=0.5;entryDx=0;entryDy=0;" edge="1" parent="1" source="hTSMa4kTt9vsmSw7G7Qm-30" target="hTSMa4kTt9vsmSw7G7Qm-31">
          <mxGeometry relative="1" as="geometry" />
        </mxCell>
        <mxCell id="hTSMa4kTt9vsmSw7G7Qm-30" value="" style="ellipse;whiteSpace=wrap;html=1;aspect=fixed;" vertex="1" parent="1">
          <mxGeometry x="880" y="150" width="60" height="60" as="geometry" />
        </mxCell>
        <mxCell id="hTSMa4kTt9vsmSw7G7Qm-32" style="edgeStyle=orthogonalEdgeStyle;rounded=0;orthogonalLoop=1;jettySize=auto;html=1;" edge="1" parent="1" source="hTSMa4kTt9vsmSw7G7Qm-31" target="hTSMa4kTt9vsmSw7G7Qm-26">
          <mxGeometry relative="1" as="geometry" />
        </mxCell>
        <mxCell id="hTSMa4kTt9vsmSw7G7Qm-33" style="edgeStyle=orthogonalEdgeStyle;rounded=0;orthogonalLoop=1;jettySize=auto;html=1;entryX=0.5;entryY=0;entryDx=0;entryDy=0;" edge="1" parent="1" source="hTSMa4kTt9vsmSw7G7Qm-31" target="hTSMa4kTt9vsmSw7G7Qm-28">
          <mxGeometry relative="1" as="geometry">
            <Array as="points">
              <mxPoint x="680" y="360" />
              <mxPoint x="767" y="360" />
            </Array>
          </mxGeometry>
        </mxCell>
        <mxCell id="hTSMa4kTt9vsmSw7G7Qm-31" value="查询设备状态与监测信息" style="rounded=0;whiteSpace=wrap;html=1;" vertex="1" parent="1">
          <mxGeometry x="610" y="150" width="140" height="60" as="geometry" />
        </mxCell>
      </root>
    </mxGraphModel>
  </diagram>
</mxfile>
